{
	"asset":{
		"generator":"Khronos glTF Blender I/O v3.6.28",
		"version":"2.0"
	},
	"extensionsUsed":[
		"KHR_materials_unlit"
	],
	"scene":0,
	"scenes":[
		{
			"name":"Scene",
			"nodes":[
				0
			]
		}
	],
	"nodes":[
		{
			"mesh":0,
			"name":"Housemill",
			"rotation":[
				-0.9857140183448792,
				0.12931646406650543,
				-0.0041834949515759945,
				0.10783141106367111
			],
			"scale":[
				0.46973052620887756,
				0.46973052620887756,
				0.4697304368019104
			],
			"translation":[
				-6.1253767013549805,
				6.93560266494751,
				10.409699440002441
			]
		}
	],
	"materials":[
		{
			"doubleSided":true,
			"extensions":{
				"KHR_materials_unlit":{}
			},
			"name":"Housemill.004",
			"pbrMetallicRoughness":{
				"baseColorTexture":{
					"index":0,
					"texCoord":0
				},
				"metallicFactor":0,
				"roughnessFactor":0.9
			}
		}
	],
	"meshes":[
		{
			"name":"Mesh.002",
			"primitives":[
				{
					"attributes":{
						"COLOR_0":0,
						"POSITION":1,
						"NORMAL":2,
						"TEXCOORD_0":3
					},
					"indices":4,
					"material":0
				}
			]
		}
	],
	"textures":[
		{
			"sampler":0,
			"source":0
		}
	],
	"images":[
		{
			"bufferView":5,
			"mimeType":"image/jpeg",
			"name":"Image_0"
		}
	],
	"accessors":[
		{
			"bufferView":0,
			"componentType":5123,
			"count":51647,
			"normalized":true,
			"type":"VEC4"
		},
		{
			"bufferView":1,
			"componentType":5126,
			"count":51647,
			"max":[
				46.80129623413086,
				26.763139724731445,
				36.79225158691406
			],
			"min":[
				-9.042988777160645,
				-1.4288057088851929,
				6.120309829711914
			],
			"type":"VEC3"
		},
		{
			"bufferView":2,
			"componentType":5126,
			"count":51647,
			"type":"VEC3"
		},
		{
			"bufferView":3,
			"componentType":5126,
			"count":51647,
			"type":"VEC2"
		},
		{
			"bufferView":4,
			"componentType":5123,
			"count":196080,
			"type":"SCALAR"
		}
	],
	"bufferViews":[
		{
			"buffer":0,
			"byteLength":413176,
			"byteOffset":0,
			"target":34962
		},
		{
			"buffer":0,
			"byteLength":619764,
			"byteOffset":413176,
			"target":34962
		},
		{
			"buffer":0,
			"byteLength":619764,
			"byteOffset":1032940,
			"target":34962
		},
		{
			"buffer":0,
			"byteLength":413176,
			"byteOffset":1652704,
			"target":34962
		},
		{
			"buffer":0,
			"byteLength":392160,
			"byteOffset":2065880,
			"target":34963
		},
		{
			"buffer":0,
			"byteLength":372558,
			"byteOffset":2458040
		}
	],
	"samplers":[
		{
			"magFilter":9729,
			"minFilter":9987
		}
	],
	"buffers":[
		{
			"byteLength":2830600,
			"uri":"data:application/octet-stream;base64,"
		}
	]
}
