M48
;GenerationSoftware,Autodesk,EAGLE,9.7.0*%
;CreationDate,2024-07-03T08:04:21Z*%
FMAT,2
ICI,OFF
METRIC,TZ,000.000
T8C0.600
T7C0.660
T6C0.850
T5C1.000
T4C1.016
T3C2.200
T2C2.286
T1C2.500
%
G90
M71
T1
X37318Y31790
X4298Y31790
X4298Y3850
X37318Y3850
T2
X47075Y19377
X47075Y39697
T3
X6402Y44744
X6402Y65244
X63402Y65244
X63402Y44744
T4
X59548Y4116
X22870Y51520
X22870Y54060
X22870Y56600
X57008Y4116
X51928Y4116
X54468Y4116
T5
X23197Y65154
X10497Y44834
X43517Y44834
X40977Y44834
X38437Y44834
X35897Y44834
X33357Y44834
X30817Y44834
X28277Y44834
X25737Y44834
X23197Y44834
X43517Y65154
X40977Y65154
X38437Y65154
X35897Y65154
X33357Y65154
X20657Y44834
X28277Y65154
X25737Y65154
X18117Y44834
X20657Y65154
X18117Y65154
X15577Y65154
X13037Y65154
X10497Y65154
X30817Y65154
X13037Y44834
X15577Y44834
T6
X47075Y35887
X47075Y33347
X47075Y30807
X47075Y28267
X47075Y25727
X47075Y23187
X55965Y30807
X55965Y28267
T7
X33280Y50082
X33280Y57322
T8
X23348Y31790
X33508Y31790
X30968Y31790
X28428Y31790
X25888Y31790
X8108Y31790
X10648Y31790
X13188Y31790
X15728Y31790
X18268Y31790
X20808Y31790
M30