G04 EAGLE Gerber RS-274X export*
G75*
%MOMM*%
%FSLAX34Y34*%
%LPD*%
%INBottom Copper*%
%IPPOS*%
%AMOC8*
5,1,8,0,0,1.08239X$1,22.5*%
G01*
G04 Define Apertures*
%ADD10C,1.524000*%
%ADD11C,1.260000*%
%ADD12C,0.001000*%
%ADD13C,1.930400*%
%ADD14C,3.516000*%
%ADD15C,1.508000*%
%ADD16C,1.358000*%
%ADD17C,3.556000*%
%ADD18C,0.600000*%
G36*
X32000Y20982D02*
X31703Y20922D01*
X16684Y20922D01*
X16409Y20973D01*
X16154Y21137D01*
X15982Y21387D01*
X15922Y21684D01*
X15922Y658316D01*
X15973Y658591D01*
X16137Y658846D01*
X16387Y659018D01*
X16684Y659078D01*
X42723Y659078D01*
X42992Y659029D01*
X43248Y658868D01*
X43422Y658619D01*
X43485Y658322D01*
X43427Y658024D01*
X42856Y656647D01*
X42856Y648229D01*
X46077Y640452D01*
X52030Y634499D01*
X59807Y631278D01*
X68225Y631278D01*
X76002Y634499D01*
X81955Y640452D01*
X85176Y648229D01*
X85176Y656647D01*
X84605Y658024D01*
X84548Y658292D01*
X84599Y658591D01*
X84762Y658846D01*
X85012Y659018D01*
X85309Y659078D01*
X97850Y659078D01*
X98113Y659031D01*
X98371Y658872D01*
X98547Y658624D01*
X98612Y658328D01*
X98556Y658030D01*
X98389Y657777D01*
X97284Y656672D01*
X95904Y653341D01*
X95904Y649735D01*
X97284Y646404D01*
X99834Y643854D01*
X103165Y642474D01*
X106771Y642474D01*
X110102Y643854D01*
X112652Y646404D01*
X114032Y649735D01*
X114032Y653341D01*
X112652Y656672D01*
X111547Y657777D01*
X111394Y657997D01*
X111324Y658292D01*
X111375Y658591D01*
X111539Y658846D01*
X111789Y659018D01*
X112086Y659078D01*
X123250Y659078D01*
X123513Y659031D01*
X123771Y658872D01*
X123947Y658624D01*
X124012Y658328D01*
X123956Y658030D01*
X123789Y657777D01*
X122684Y656672D01*
X121304Y653341D01*
X121304Y649735D01*
X122684Y646404D01*
X124145Y644943D01*
X124308Y644701D01*
X124368Y644404D01*
X124368Y625345D01*
X125281Y623139D01*
X136969Y611451D01*
X139175Y610538D01*
X306514Y610538D01*
X306797Y610483D01*
X307051Y610317D01*
X326575Y590946D01*
X326740Y590703D01*
X326800Y590405D01*
X326800Y578602D01*
X326744Y578316D01*
X326577Y578064D01*
X326167Y577654D01*
X324976Y574778D01*
X324976Y571666D01*
X326167Y568790D01*
X328368Y566589D01*
X331244Y565398D01*
X334356Y565398D01*
X337232Y566589D01*
X339433Y568790D01*
X340624Y571666D01*
X340624Y574778D01*
X339433Y577654D01*
X339023Y578064D01*
X338860Y578305D01*
X338800Y578602D01*
X338800Y591891D01*
X338805Y591917D01*
X338800Y593234D01*
X338800Y594428D01*
X338338Y595531D01*
X338337Y595534D01*
X337882Y596632D01*
X337034Y597473D01*
X336103Y598404D01*
X336081Y598419D01*
X313537Y620786D01*
X312689Y621633D01*
X311586Y622085D01*
X311583Y622086D01*
X310482Y622543D01*
X309288Y622538D01*
X143169Y622538D01*
X142883Y622594D01*
X142630Y622761D01*
X136591Y628800D01*
X136428Y629042D01*
X136368Y629339D01*
X136368Y644404D01*
X136424Y644690D01*
X136591Y644943D01*
X138052Y646404D01*
X139432Y649735D01*
X139432Y653341D01*
X138052Y656672D01*
X136947Y657777D01*
X136794Y657997D01*
X136724Y658292D01*
X136775Y658591D01*
X136939Y658846D01*
X137189Y659018D01*
X137486Y659078D01*
X148650Y659078D01*
X148913Y659031D01*
X149171Y658872D01*
X149347Y658624D01*
X149412Y658328D01*
X149356Y658030D01*
X149189Y657777D01*
X148084Y656672D01*
X146704Y653341D01*
X146704Y649735D01*
X148084Y646404D01*
X150634Y643854D01*
X153965Y642474D01*
X157571Y642474D01*
X160902Y643854D01*
X163452Y646404D01*
X164832Y649735D01*
X164832Y653341D01*
X163452Y656672D01*
X162347Y657777D01*
X162194Y657997D01*
X162124Y658292D01*
X162175Y658591D01*
X162339Y658846D01*
X162589Y659018D01*
X162886Y659078D01*
X174050Y659078D01*
X174313Y659031D01*
X174571Y658872D01*
X174747Y658624D01*
X174812Y658328D01*
X174756Y658030D01*
X174589Y657777D01*
X173484Y656672D01*
X172104Y653341D01*
X172104Y649735D01*
X173484Y646404D01*
X176034Y643854D01*
X179365Y642474D01*
X182971Y642474D01*
X186302Y643854D01*
X188852Y646404D01*
X190232Y649735D01*
X190232Y653341D01*
X188852Y656672D01*
X187747Y657777D01*
X187594Y657997D01*
X187524Y658292D01*
X187575Y658591D01*
X187739Y658846D01*
X187989Y659018D01*
X188286Y659078D01*
X199450Y659078D01*
X199713Y659031D01*
X199971Y658872D01*
X200147Y658624D01*
X200212Y658328D01*
X200156Y658030D01*
X199989Y657777D01*
X198884Y656672D01*
X197504Y653341D01*
X197504Y649735D01*
X198884Y646404D01*
X201434Y643854D01*
X204765Y642474D01*
X208371Y642474D01*
X211702Y643854D01*
X214252Y646404D01*
X215632Y649735D01*
X215632Y653341D01*
X214252Y656672D01*
X213147Y657777D01*
X212994Y657997D01*
X212924Y658292D01*
X212975Y658591D01*
X213139Y658846D01*
X213389Y659018D01*
X213686Y659078D01*
X224850Y659078D01*
X225113Y659031D01*
X225371Y658872D01*
X225547Y658624D01*
X225612Y658328D01*
X225556Y658030D01*
X225389Y657777D01*
X224284Y656672D01*
X222904Y653341D01*
X222904Y649735D01*
X224284Y646404D01*
X226834Y643854D01*
X230165Y642474D01*
X233771Y642474D01*
X237102Y643854D01*
X239652Y646404D01*
X241032Y649735D01*
X241032Y653341D01*
X239652Y656672D01*
X238547Y657777D01*
X238394Y657997D01*
X238324Y658292D01*
X238375Y658591D01*
X238539Y658846D01*
X238789Y659018D01*
X239086Y659078D01*
X250250Y659078D01*
X250513Y659031D01*
X250771Y658872D01*
X250947Y658624D01*
X251012Y658328D01*
X250956Y658030D01*
X250789Y657777D01*
X249684Y656672D01*
X248304Y653341D01*
X248304Y649735D01*
X249684Y646404D01*
X252234Y643854D01*
X255565Y642474D01*
X259171Y642474D01*
X262502Y643854D01*
X265052Y646404D01*
X266432Y649735D01*
X266432Y653341D01*
X265052Y656672D01*
X263947Y657777D01*
X263794Y657997D01*
X263724Y658292D01*
X263775Y658591D01*
X263939Y658846D01*
X264189Y659018D01*
X264486Y659078D01*
X275650Y659078D01*
X275913Y659031D01*
X276171Y658872D01*
X276347Y658624D01*
X276412Y658328D01*
X276356Y658030D01*
X276189Y657777D01*
X275084Y656672D01*
X273704Y653341D01*
X273704Y649735D01*
X275084Y646404D01*
X277634Y643854D01*
X280965Y642474D01*
X284571Y642474D01*
X287902Y643854D01*
X290452Y646404D01*
X291832Y649735D01*
X291832Y653341D01*
X290452Y656672D01*
X289347Y657777D01*
X289194Y657997D01*
X289124Y658292D01*
X289175Y658591D01*
X289339Y658846D01*
X289589Y659018D01*
X289886Y659078D01*
X301050Y659078D01*
X301313Y659031D01*
X301571Y658872D01*
X301747Y658624D01*
X301812Y658328D01*
X301756Y658030D01*
X301589Y657777D01*
X300484Y656672D01*
X299104Y653341D01*
X299104Y649735D01*
X300484Y646404D01*
X303034Y643854D01*
X306365Y642474D01*
X309971Y642474D01*
X313302Y643854D01*
X315852Y646404D01*
X317232Y649735D01*
X317232Y653341D01*
X315852Y656672D01*
X314747Y657777D01*
X314594Y657997D01*
X314524Y658292D01*
X314575Y658591D01*
X314739Y658846D01*
X314989Y659018D01*
X315286Y659078D01*
X326450Y659078D01*
X326713Y659031D01*
X326971Y658872D01*
X327147Y658624D01*
X327212Y658328D01*
X327156Y658030D01*
X326989Y657777D01*
X325884Y656672D01*
X324504Y653341D01*
X324504Y649735D01*
X325884Y646404D01*
X328434Y643854D01*
X331765Y642474D01*
X335371Y642474D01*
X338702Y643854D01*
X341252Y646404D01*
X342632Y649735D01*
X342632Y653341D01*
X341252Y656672D01*
X340147Y657777D01*
X339994Y657997D01*
X339924Y658292D01*
X339975Y658591D01*
X340139Y658846D01*
X340389Y659018D01*
X340686Y659078D01*
X351850Y659078D01*
X352113Y659031D01*
X352371Y658872D01*
X352547Y658624D01*
X352612Y658328D01*
X352556Y658030D01*
X352389Y657777D01*
X351284Y656672D01*
X349904Y653341D01*
X349904Y649735D01*
X351284Y646404D01*
X353834Y643854D01*
X357165Y642474D01*
X360771Y642474D01*
X364102Y643854D01*
X366652Y646404D01*
X368032Y649735D01*
X368032Y653341D01*
X366652Y656672D01*
X365547Y657777D01*
X365394Y657997D01*
X365324Y658292D01*
X365375Y658591D01*
X365539Y658846D01*
X365789Y659018D01*
X366086Y659078D01*
X377250Y659078D01*
X377513Y659031D01*
X377771Y658872D01*
X377947Y658624D01*
X378012Y658328D01*
X377956Y658030D01*
X377789Y657777D01*
X376684Y656672D01*
X375304Y653341D01*
X375304Y649735D01*
X376684Y646404D01*
X379234Y643854D01*
X382565Y642474D01*
X386171Y642474D01*
X389502Y643854D01*
X392052Y646404D01*
X393432Y649735D01*
X393432Y653341D01*
X392052Y656672D01*
X390947Y657777D01*
X390794Y657997D01*
X390724Y658292D01*
X390775Y658591D01*
X390939Y658846D01*
X391189Y659018D01*
X391486Y659078D01*
X402650Y659078D01*
X402913Y659031D01*
X403171Y658872D01*
X403347Y658624D01*
X403412Y658328D01*
X403356Y658030D01*
X403189Y657777D01*
X402084Y656672D01*
X400704Y653341D01*
X400704Y649735D01*
X402084Y646404D01*
X404634Y643854D01*
X407965Y642474D01*
X411571Y642474D01*
X414902Y643854D01*
X417452Y646404D01*
X418832Y649735D01*
X418832Y653341D01*
X417452Y656672D01*
X416347Y657777D01*
X416194Y657997D01*
X416124Y658292D01*
X416175Y658591D01*
X416339Y658846D01*
X416589Y659018D01*
X416886Y659078D01*
X428050Y659078D01*
X428313Y659031D01*
X428571Y658872D01*
X428747Y658624D01*
X428812Y658328D01*
X428756Y658030D01*
X428589Y657777D01*
X427484Y656672D01*
X426104Y653341D01*
X426104Y649735D01*
X427484Y646404D01*
X430034Y643854D01*
X433365Y642474D01*
X436971Y642474D01*
X440302Y643854D01*
X442852Y646404D01*
X444232Y649735D01*
X444232Y653341D01*
X442852Y656672D01*
X441747Y657777D01*
X441594Y657997D01*
X441524Y658292D01*
X441575Y658591D01*
X441739Y658846D01*
X441989Y659018D01*
X442286Y659078D01*
X612723Y659078D01*
X612992Y659029D01*
X613248Y658868D01*
X613422Y658619D01*
X613485Y658322D01*
X613427Y658024D01*
X612856Y656647D01*
X612856Y648229D01*
X616077Y640452D01*
X622030Y634499D01*
X629807Y631278D01*
X638225Y631278D01*
X646002Y634499D01*
X651955Y640452D01*
X652612Y642039D01*
X652752Y642260D01*
X652997Y642439D01*
X653292Y642509D01*
X653591Y642458D01*
X653846Y642295D01*
X654018Y642045D01*
X654078Y641747D01*
X654078Y458129D01*
X654033Y457871D01*
X653876Y457612D01*
X653630Y457434D01*
X653334Y457367D01*
X653036Y457420D01*
X652782Y457586D01*
X652612Y457837D01*
X651955Y459424D01*
X646002Y465377D01*
X638225Y468598D01*
X629807Y468598D01*
X622030Y465377D01*
X616077Y459424D01*
X612856Y451647D01*
X612856Y443229D01*
X616077Y435452D01*
X622030Y429499D01*
X629807Y426278D01*
X638225Y426278D01*
X646002Y429499D01*
X651955Y435452D01*
X652612Y437039D01*
X652752Y437260D01*
X652997Y437439D01*
X653292Y437509D01*
X653591Y437458D01*
X653846Y437295D01*
X654018Y437045D01*
X654078Y436747D01*
X654078Y21684D01*
X654027Y21409D01*
X653863Y21154D01*
X653613Y20982D01*
X653316Y20922D01*
X384457Y20922D01*
X384193Y20969D01*
X383935Y21128D01*
X383760Y21376D01*
X383695Y21672D01*
X383750Y21970D01*
X383918Y22223D01*
X389376Y27680D01*
X392284Y34702D01*
X392284Y42302D01*
X389376Y49324D01*
X384002Y54698D01*
X376980Y57606D01*
X369380Y57606D01*
X362358Y54698D01*
X356984Y49324D01*
X354076Y42302D01*
X354076Y34702D01*
X356984Y27680D01*
X362442Y22223D01*
X362595Y22003D01*
X362665Y21708D01*
X362614Y21409D01*
X362451Y21154D01*
X362200Y20982D01*
X361903Y20922D01*
X54257Y20922D01*
X53993Y20969D01*
X53735Y21128D01*
X53560Y21376D01*
X53495Y21672D01*
X53550Y21970D01*
X53718Y22223D01*
X59176Y27680D01*
X62084Y34702D01*
X62084Y42302D01*
X59176Y49324D01*
X53802Y54698D01*
X46780Y57606D01*
X39180Y57606D01*
X32158Y54698D01*
X26784Y49324D01*
X23876Y42302D01*
X23876Y34702D01*
X26784Y27680D01*
X32242Y22223D01*
X32395Y22003D01*
X32465Y21708D01*
X32414Y21409D01*
X32251Y21154D01*
X32000Y20982D01*
G37*
%LPC*%
G36*
X210920Y566762D02*
X227938Y566762D01*
X227938Y576160D01*
X219059Y576160D01*
X215325Y574613D01*
X212467Y571755D01*
X210920Y568021D01*
X210920Y566762D01*
G37*
G36*
X229462Y566762D02*
X246480Y566762D01*
X246480Y568021D01*
X244933Y571755D01*
X242075Y574613D01*
X238341Y576160D01*
X229462Y576160D01*
X229462Y566762D01*
G37*
G36*
X229462Y555840D02*
X238341Y555840D01*
X242075Y557387D01*
X244933Y560245D01*
X246480Y563979D01*
X246480Y565238D01*
X229462Y565238D01*
X229462Y555840D01*
G37*
G36*
X219059Y555840D02*
X227938Y555840D01*
X227938Y565238D01*
X210920Y565238D01*
X210920Y563979D01*
X212467Y560245D01*
X215325Y557387D01*
X219059Y555840D01*
G37*
G36*
X568259Y24398D02*
X571897Y24398D01*
X575258Y25790D01*
X577830Y28362D01*
X579222Y31723D01*
X579222Y50601D01*
X577830Y53962D01*
X576301Y55490D01*
X576138Y55732D01*
X576078Y56029D01*
X576078Y59115D01*
X575165Y61321D01*
X546223Y90262D01*
X546060Y90504D01*
X546000Y90801D01*
X546000Y392193D01*
X545087Y394399D01*
X461399Y478087D01*
X459193Y479000D01*
X318801Y479000D01*
X318515Y479056D01*
X318262Y479223D01*
X251799Y545687D01*
X249593Y546600D01*
X243567Y546600D01*
X243281Y546656D01*
X243028Y546823D01*
X241500Y548352D01*
X238139Y549744D01*
X219261Y549744D01*
X215900Y548352D01*
X213328Y545780D01*
X211936Y542419D01*
X211936Y538781D01*
X213328Y535420D01*
X215900Y532848D01*
X219261Y531456D01*
X238139Y531456D01*
X241500Y532848D01*
X243028Y534377D01*
X243270Y534540D01*
X243567Y534600D01*
X245599Y534600D01*
X245885Y534544D01*
X246138Y534377D01*
X312601Y467913D01*
X314807Y467000D01*
X455199Y467000D01*
X455485Y466944D01*
X455738Y466777D01*
X533777Y388738D01*
X533940Y388496D01*
X534000Y388199D01*
X534000Y86807D01*
X534913Y84601D01*
X563401Y56114D01*
X563559Y55884D01*
X563624Y55587D01*
X563568Y55289D01*
X563401Y55036D01*
X562326Y53962D01*
X560934Y50601D01*
X560934Y31723D01*
X562326Y28362D01*
X564898Y25790D01*
X568259Y24398D01*
G37*
G36*
X219261Y506056D02*
X238139Y506056D01*
X241500Y507448D01*
X244072Y510020D01*
X245464Y513381D01*
X245464Y517019D01*
X244072Y520380D01*
X241500Y522952D01*
X238139Y524344D01*
X219261Y524344D01*
X215900Y522952D01*
X213328Y520380D01*
X211936Y517019D01*
X211936Y513381D01*
X213328Y510020D01*
X215900Y507448D01*
X219261Y506056D01*
G37*
G36*
X331244Y492998D02*
X334356Y492998D01*
X337232Y494189D01*
X339433Y496390D01*
X340624Y499266D01*
X340624Y502378D01*
X339433Y505254D01*
X337232Y507455D01*
X334356Y508646D01*
X331244Y508646D01*
X328368Y507455D01*
X326167Y505254D01*
X324976Y502378D01*
X324976Y499266D01*
X326167Y496390D01*
X328368Y494189D01*
X331244Y492998D01*
G37*
G36*
X59807Y426278D02*
X68225Y426278D01*
X76002Y429499D01*
X81955Y435452D01*
X85176Y443229D01*
X85176Y451647D01*
X81955Y459424D01*
X76002Y465377D01*
X68225Y468598D01*
X59807Y468598D01*
X52030Y465377D01*
X46077Y459424D01*
X42856Y451647D01*
X42856Y443229D01*
X46077Y435452D01*
X52030Y429499D01*
X59807Y426278D01*
G37*
G36*
X433365Y439274D02*
X436971Y439274D01*
X440302Y440654D01*
X442852Y443204D01*
X444232Y446535D01*
X444232Y450141D01*
X442852Y453472D01*
X440302Y456022D01*
X436971Y457402D01*
X433365Y457402D01*
X430034Y456022D01*
X427484Y453472D01*
X426104Y450141D01*
X426104Y446535D01*
X427484Y443204D01*
X430034Y440654D01*
X433365Y439274D01*
G37*
G36*
X382565Y439274D02*
X386171Y439274D01*
X389502Y440654D01*
X392052Y443204D01*
X393432Y446535D01*
X393432Y450141D01*
X392052Y453472D01*
X389502Y456022D01*
X386171Y457402D01*
X382565Y457402D01*
X379234Y456022D01*
X376684Y453472D01*
X375304Y450141D01*
X375304Y446535D01*
X376684Y443204D01*
X379234Y440654D01*
X382565Y439274D01*
G37*
G36*
X517459Y24398D02*
X521097Y24398D01*
X524458Y25790D01*
X527030Y28362D01*
X528422Y31723D01*
X528422Y50601D01*
X527030Y53962D01*
X524458Y56534D01*
X521097Y57926D01*
X517459Y57926D01*
X514098Y56534D01*
X511526Y53962D01*
X510134Y50601D01*
X510134Y47924D01*
X510083Y47649D01*
X509919Y47394D01*
X509669Y47222D01*
X509372Y47162D01*
X503639Y47162D01*
X503353Y47218D01*
X503100Y47385D01*
X428223Y122262D01*
X428060Y122504D01*
X428000Y122801D01*
X428000Y310299D01*
X427087Y312505D01*
X292055Y447536D01*
X291892Y447778D01*
X291832Y448075D01*
X291832Y450141D01*
X290452Y453472D01*
X287902Y456022D01*
X284571Y457402D01*
X280965Y457402D01*
X277634Y456022D01*
X275084Y453472D01*
X273704Y450141D01*
X273704Y446535D01*
X275084Y443204D01*
X277634Y440654D01*
X280965Y439274D01*
X283031Y439274D01*
X283317Y439218D01*
X283570Y439051D01*
X415777Y306844D01*
X415940Y306602D01*
X416000Y306305D01*
X416000Y118807D01*
X416913Y116601D01*
X497439Y36075D01*
X499645Y35162D01*
X509372Y35162D01*
X509647Y35111D01*
X509902Y34947D01*
X510074Y34697D01*
X510134Y34400D01*
X510134Y31723D01*
X511526Y28362D01*
X514098Y25790D01*
X517459Y24398D01*
G37*
G36*
X357165Y439274D02*
X360771Y439274D01*
X364102Y440654D01*
X366652Y443204D01*
X368032Y446535D01*
X368032Y450141D01*
X366652Y453472D01*
X364102Y456022D01*
X360771Y457402D01*
X357165Y457402D01*
X353834Y456022D01*
X351284Y453472D01*
X349904Y450141D01*
X349904Y446535D01*
X351284Y443204D01*
X353834Y440654D01*
X357165Y439274D01*
G37*
G36*
X103165Y439274D02*
X106771Y439274D01*
X110102Y440654D01*
X112652Y443204D01*
X114032Y446535D01*
X114032Y450141D01*
X112652Y453472D01*
X110102Y456022D01*
X106771Y457402D01*
X103165Y457402D01*
X99834Y456022D01*
X97284Y453472D01*
X95904Y450141D01*
X95904Y446535D01*
X97284Y443204D01*
X99834Y440654D01*
X103165Y439274D01*
G37*
G36*
X542859Y24398D02*
X546497Y24398D01*
X549858Y25790D01*
X552430Y28362D01*
X553822Y31723D01*
X553822Y50601D01*
X552430Y53962D01*
X549858Y56534D01*
X546497Y57926D01*
X544875Y57926D01*
X544589Y57982D01*
X544336Y58149D01*
X445223Y157262D01*
X445060Y157504D01*
X445000Y157801D01*
X445000Y318193D01*
X444087Y320399D01*
X359256Y405229D01*
X359224Y405263D01*
X356278Y408599D01*
X356145Y408812D01*
X356120Y408871D01*
X355424Y409567D01*
X355392Y409601D01*
X354740Y410339D01*
X354682Y410367D01*
X354478Y410513D01*
X317455Y447536D01*
X317292Y447778D01*
X317232Y448075D01*
X317232Y450141D01*
X315852Y453472D01*
X313302Y456022D01*
X309971Y457402D01*
X306365Y457402D01*
X303034Y456022D01*
X300484Y453472D01*
X299104Y450141D01*
X299104Y446535D01*
X300484Y443204D01*
X303034Y440654D01*
X306365Y439274D01*
X308431Y439274D01*
X308717Y439218D01*
X308970Y439051D01*
X346643Y401378D01*
X346675Y401344D01*
X349622Y398008D01*
X349754Y397795D01*
X349779Y397736D01*
X350475Y397040D01*
X350507Y397005D01*
X351159Y396268D01*
X351217Y396239D01*
X351421Y396093D01*
X432777Y314738D01*
X432940Y314496D01*
X433000Y314199D01*
X433000Y153807D01*
X433913Y151601D01*
X535311Y50204D01*
X535474Y49962D01*
X535534Y49665D01*
X535534Y31723D01*
X536926Y28362D01*
X539498Y25790D01*
X542859Y24398D01*
G37*
G36*
X407965Y439274D02*
X411571Y439274D01*
X414902Y440654D01*
X417452Y443204D01*
X418832Y446535D01*
X418832Y450141D01*
X417452Y453472D01*
X414902Y456022D01*
X411571Y457402D01*
X407965Y457402D01*
X404634Y456022D01*
X402084Y453472D01*
X400704Y450141D01*
X400704Y446535D01*
X402084Y443204D01*
X404634Y440654D01*
X407965Y439274D01*
G37*
G36*
X331765Y439274D02*
X335371Y439274D01*
X338702Y440654D01*
X341252Y443204D01*
X342632Y446535D01*
X342632Y450141D01*
X341252Y453472D01*
X338702Y456022D01*
X335371Y457402D01*
X331765Y457402D01*
X328434Y456022D01*
X325884Y453472D01*
X324504Y450141D01*
X324504Y446535D01*
X325884Y443204D01*
X328434Y440654D01*
X331765Y439274D01*
G37*
G36*
X128565Y439274D02*
X132171Y439274D01*
X135502Y440654D01*
X138052Y443204D01*
X139432Y446535D01*
X139432Y450141D01*
X138052Y453472D01*
X135502Y456022D01*
X132171Y457402D01*
X128565Y457402D01*
X125234Y456022D01*
X122684Y453472D01*
X121304Y450141D01*
X121304Y446535D01*
X122684Y443204D01*
X125234Y440654D01*
X128565Y439274D01*
G37*
G36*
X255565Y439274D02*
X259171Y439274D01*
X262502Y440654D01*
X265052Y443204D01*
X266432Y446535D01*
X266432Y450141D01*
X265052Y453472D01*
X262502Y456022D01*
X259171Y457402D01*
X255565Y457402D01*
X252234Y456022D01*
X249684Y453472D01*
X248304Y450141D01*
X248304Y446535D01*
X249684Y443204D01*
X252234Y440654D01*
X255565Y439274D01*
G37*
G36*
X230165Y439274D02*
X233771Y439274D01*
X237102Y440654D01*
X239652Y443204D01*
X241032Y446535D01*
X241032Y450141D01*
X239652Y453472D01*
X237102Y456022D01*
X233771Y457402D01*
X230165Y457402D01*
X226834Y456022D01*
X224284Y453472D01*
X222904Y450141D01*
X222904Y446535D01*
X224284Y443204D01*
X226834Y440654D01*
X230165Y439274D01*
G37*
G36*
X204765Y439274D02*
X208371Y439274D01*
X211702Y440654D01*
X214252Y443204D01*
X215632Y446535D01*
X215632Y450141D01*
X214252Y453472D01*
X211702Y456022D01*
X208371Y457402D01*
X204765Y457402D01*
X201434Y456022D01*
X198884Y453472D01*
X197504Y450141D01*
X197504Y446535D01*
X198884Y443204D01*
X201434Y440654D01*
X204765Y439274D01*
G37*
G36*
X179365Y439274D02*
X182971Y439274D01*
X186302Y440654D01*
X188852Y443204D01*
X190232Y446535D01*
X190232Y450141D01*
X188852Y453472D01*
X186302Y456022D01*
X182971Y457402D01*
X179365Y457402D01*
X176034Y456022D01*
X173484Y453472D01*
X172104Y450141D01*
X172104Y446535D01*
X173484Y443204D01*
X176034Y440654D01*
X179365Y439274D01*
G37*
G36*
X153965Y439274D02*
X157571Y439274D01*
X160902Y440654D01*
X163452Y443204D01*
X164832Y446535D01*
X164832Y450141D01*
X163452Y453472D01*
X160902Y456022D01*
X157571Y457402D01*
X153965Y457402D01*
X150634Y456022D01*
X148084Y453472D01*
X146704Y450141D01*
X146704Y446535D01*
X148084Y443204D01*
X150634Y440654D01*
X153965Y439274D01*
G37*
G36*
X466911Y377670D02*
X474591Y377670D01*
X481686Y380609D01*
X487116Y386039D01*
X490055Y393134D01*
X490055Y400814D01*
X487116Y407909D01*
X481686Y413339D01*
X474591Y416278D01*
X466911Y416278D01*
X459816Y413339D01*
X454386Y407909D01*
X451447Y400814D01*
X451447Y393134D01*
X454386Y386039D01*
X459816Y380609D01*
X466911Y377670D01*
G37*
G36*
X468528Y347698D02*
X472974Y347698D01*
X477082Y349399D01*
X480226Y352543D01*
X481927Y356651D01*
X481927Y361097D01*
X480226Y365205D01*
X477082Y368349D01*
X472974Y370050D01*
X468528Y370050D01*
X464420Y368349D01*
X461277Y365205D01*
X459575Y361097D01*
X459575Y356651D01*
X461277Y352543D01*
X464420Y349399D01*
X468528Y347698D01*
G37*
G36*
X458559Y334236D02*
X469989Y334236D01*
X469989Y345666D01*
X468326Y345666D01*
X463845Y343810D01*
X460415Y340380D01*
X458559Y335899D01*
X458559Y334236D01*
G37*
G36*
X471513Y334236D02*
X482943Y334236D01*
X482943Y335899D01*
X481087Y340380D01*
X477657Y343810D01*
X473176Y345666D01*
X471513Y345666D01*
X471513Y334236D01*
G37*
G36*
X369380Y298798D02*
X376980Y298798D01*
X384002Y301706D01*
X389376Y307080D01*
X392284Y314102D01*
X392284Y321702D01*
X389376Y328724D01*
X384002Y334098D01*
X376980Y337006D01*
X369380Y337006D01*
X362358Y334098D01*
X356984Y328724D01*
X354076Y321702D01*
X354076Y314102D01*
X356984Y307080D01*
X362358Y301706D01*
X369380Y298798D01*
G37*
G36*
X39180Y298798D02*
X46780Y298798D01*
X53802Y301706D01*
X59176Y307080D01*
X62084Y314102D01*
X62084Y321702D01*
X59176Y328724D01*
X53802Y334098D01*
X46780Y337006D01*
X39180Y337006D01*
X32158Y334098D01*
X26784Y328724D01*
X23876Y321702D01*
X23876Y314102D01*
X26784Y307080D01*
X32158Y301706D01*
X39180Y298798D01*
G37*
G36*
X471513Y321282D02*
X473176Y321282D01*
X477657Y323138D01*
X481087Y326568D01*
X482943Y331049D01*
X482943Y332712D01*
X471513Y332712D01*
X471513Y321282D01*
G37*
G36*
X468326Y321282D02*
X469989Y321282D01*
X469989Y332712D01*
X458559Y332712D01*
X458559Y331049D01*
X460415Y326568D01*
X463845Y323138D01*
X468326Y321282D01*
G37*
G36*
X297488Y318664D02*
X308918Y318664D01*
X308918Y330094D01*
X307255Y330094D01*
X302774Y328238D01*
X299344Y324808D01*
X297488Y320327D01*
X297488Y318664D01*
G37*
G36*
X310442Y318664D02*
X321872Y318664D01*
X321872Y320327D01*
X320016Y324808D01*
X316586Y328238D01*
X312105Y330094D01*
X310442Y330094D01*
X310442Y318664D01*
G37*
G36*
X332857Y306726D02*
X337303Y306726D01*
X341411Y308427D01*
X344555Y311571D01*
X346256Y315679D01*
X346256Y320125D01*
X344555Y324233D01*
X341411Y327377D01*
X337303Y329078D01*
X332857Y329078D01*
X328749Y327377D01*
X325605Y324233D01*
X323904Y320125D01*
X323904Y315679D01*
X325605Y311571D01*
X328749Y308427D01*
X332857Y306726D01*
G37*
G36*
X282057Y306726D02*
X286503Y306726D01*
X290611Y308427D01*
X293755Y311571D01*
X295456Y315679D01*
X295456Y320125D01*
X293755Y324233D01*
X290611Y327377D01*
X286503Y329078D01*
X282057Y329078D01*
X277949Y327377D01*
X274805Y324233D01*
X273104Y320125D01*
X273104Y315679D01*
X274805Y311571D01*
X277949Y308427D01*
X282057Y306726D01*
G37*
G36*
X256657Y306726D02*
X261103Y306726D01*
X265211Y308427D01*
X268355Y311571D01*
X270056Y315679D01*
X270056Y320125D01*
X268355Y324233D01*
X265211Y327377D01*
X261103Y329078D01*
X256657Y329078D01*
X252549Y327377D01*
X249405Y324233D01*
X247704Y320125D01*
X247704Y315679D01*
X249405Y311571D01*
X252549Y308427D01*
X256657Y306726D01*
G37*
G36*
X231257Y306726D02*
X235703Y306726D01*
X239811Y308427D01*
X242955Y311571D01*
X244656Y315679D01*
X244656Y320125D01*
X242955Y324233D01*
X239811Y327377D01*
X235703Y329078D01*
X231257Y329078D01*
X227149Y327377D01*
X224005Y324233D01*
X222304Y320125D01*
X222304Y315679D01*
X224005Y311571D01*
X227149Y308427D01*
X231257Y306726D01*
G37*
G36*
X205857Y306726D02*
X210303Y306726D01*
X214411Y308427D01*
X217555Y311571D01*
X219256Y315679D01*
X219256Y320125D01*
X217555Y324233D01*
X214411Y327377D01*
X210303Y329078D01*
X205857Y329078D01*
X201749Y327377D01*
X198605Y324233D01*
X196904Y320125D01*
X196904Y315679D01*
X198605Y311571D01*
X201749Y308427D01*
X205857Y306726D01*
G37*
G36*
X180457Y306726D02*
X184903Y306726D01*
X189011Y308427D01*
X192155Y311571D01*
X193856Y315679D01*
X193856Y320125D01*
X192155Y324233D01*
X189011Y327377D01*
X184903Y329078D01*
X180457Y329078D01*
X176349Y327377D01*
X173205Y324233D01*
X171504Y320125D01*
X171504Y315679D01*
X173205Y311571D01*
X176349Y308427D01*
X180457Y306726D01*
G37*
G36*
X155057Y306726D02*
X159503Y306726D01*
X163611Y308427D01*
X166755Y311571D01*
X168456Y315679D01*
X168456Y320125D01*
X166755Y324233D01*
X163611Y327377D01*
X159503Y329078D01*
X155057Y329078D01*
X150949Y327377D01*
X147805Y324233D01*
X146104Y320125D01*
X146104Y315679D01*
X147805Y311571D01*
X150949Y308427D01*
X155057Y306726D01*
G37*
G36*
X129657Y306726D02*
X134103Y306726D01*
X138211Y308427D01*
X141355Y311571D01*
X143056Y315679D01*
X143056Y320125D01*
X141355Y324233D01*
X138211Y327377D01*
X134103Y329078D01*
X129657Y329078D01*
X125549Y327377D01*
X122405Y324233D01*
X120704Y320125D01*
X120704Y315679D01*
X122405Y311571D01*
X125549Y308427D01*
X129657Y306726D01*
G37*
G36*
X104257Y306726D02*
X108703Y306726D01*
X112811Y308427D01*
X115955Y311571D01*
X117656Y315679D01*
X117656Y320125D01*
X115955Y324233D01*
X112811Y327377D01*
X108703Y329078D01*
X104257Y329078D01*
X100149Y327377D01*
X97005Y324233D01*
X95304Y320125D01*
X95304Y315679D01*
X97005Y311571D01*
X100149Y308427D01*
X104257Y306726D01*
G37*
G36*
X78857Y306726D02*
X83303Y306726D01*
X87411Y308427D01*
X90555Y311571D01*
X92256Y315679D01*
X92256Y320125D01*
X90555Y324233D01*
X87411Y327377D01*
X83303Y329078D01*
X78857Y329078D01*
X74749Y327377D01*
X71605Y324233D01*
X69904Y320125D01*
X69904Y315679D01*
X71605Y311571D01*
X74749Y308427D01*
X78857Y306726D01*
G37*
G36*
X468528Y296898D02*
X472974Y296898D01*
X477082Y298599D01*
X480226Y301743D01*
X481927Y305851D01*
X481927Y310297D01*
X480226Y314405D01*
X477082Y317549D01*
X472974Y319250D01*
X468528Y319250D01*
X464420Y317549D01*
X461277Y314405D01*
X459575Y310297D01*
X459575Y305851D01*
X461277Y301743D01*
X464420Y298599D01*
X468528Y296898D01*
G37*
G36*
X307255Y305710D02*
X308918Y305710D01*
X308918Y317140D01*
X297488Y317140D01*
X297488Y315477D01*
X299344Y310996D01*
X302774Y307566D01*
X307255Y305710D01*
G37*
G36*
X310442Y305710D02*
X312105Y305710D01*
X316586Y307566D01*
X320016Y310996D01*
X321872Y315477D01*
X321872Y317140D01*
X310442Y317140D01*
X310442Y305710D01*
G37*
G36*
X557997Y299760D02*
X561305Y299760D01*
X564361Y301026D01*
X566699Y303364D01*
X567965Y306420D01*
X567965Y309728D01*
X566699Y312784D01*
X564361Y315122D01*
X561305Y316388D01*
X557997Y316388D01*
X554942Y315122D01*
X552603Y312784D01*
X551337Y309728D01*
X551337Y306420D01*
X552603Y303364D01*
X554942Y301026D01*
X557997Y299760D01*
G37*
G36*
X468528Y271498D02*
X472974Y271498D01*
X477082Y273199D01*
X480226Y276343D01*
X481927Y280451D01*
X481927Y284897D01*
X480226Y289005D01*
X477082Y292149D01*
X472974Y293850D01*
X468528Y293850D01*
X464420Y292149D01*
X461277Y289005D01*
X459575Y284897D01*
X459575Y280451D01*
X461277Y276343D01*
X464420Y273199D01*
X468528Y271498D01*
G37*
G36*
X557997Y274360D02*
X561305Y274360D01*
X564361Y275626D01*
X566699Y277964D01*
X567965Y281020D01*
X567965Y284328D01*
X566699Y287384D01*
X564361Y289722D01*
X561305Y290988D01*
X557997Y290988D01*
X554942Y289722D01*
X552603Y287384D01*
X551337Y284328D01*
X551337Y281020D01*
X552603Y277964D01*
X554942Y275626D01*
X557997Y274360D01*
G37*
G36*
X468528Y246098D02*
X472974Y246098D01*
X477082Y247799D01*
X480226Y250943D01*
X481927Y255051D01*
X481927Y259497D01*
X480226Y263605D01*
X477082Y266749D01*
X472974Y268450D01*
X468528Y268450D01*
X464420Y266749D01*
X461277Y263605D01*
X459575Y259497D01*
X459575Y255051D01*
X461277Y250943D01*
X464420Y247799D01*
X468528Y246098D01*
G37*
G36*
X468528Y220698D02*
X472974Y220698D01*
X477082Y222399D01*
X480226Y225543D01*
X481927Y229651D01*
X481927Y234097D01*
X480226Y238205D01*
X477082Y241349D01*
X472974Y243050D01*
X468528Y243050D01*
X464420Y241349D01*
X461277Y238205D01*
X459575Y234097D01*
X459575Y229651D01*
X461277Y225543D01*
X464420Y222399D01*
X468528Y220698D01*
G37*
G36*
X466911Y174470D02*
X474591Y174470D01*
X481686Y177409D01*
X487116Y182839D01*
X490055Y189934D01*
X490055Y197614D01*
X487116Y204709D01*
X481686Y210139D01*
X474591Y213078D01*
X466911Y213078D01*
X459816Y210139D01*
X454386Y204709D01*
X451447Y197614D01*
X451447Y189934D01*
X454386Y182839D01*
X459816Y177409D01*
X466911Y174470D01*
G37*
G36*
X593659Y24398D02*
X597297Y24398D01*
X600658Y25790D01*
X603230Y28362D01*
X604622Y31723D01*
X604622Y50601D01*
X603230Y53962D01*
X600658Y56534D01*
X597297Y57926D01*
X593659Y57926D01*
X590298Y56534D01*
X587726Y53962D01*
X586334Y50601D01*
X586334Y31723D01*
X587726Y28362D01*
X590298Y25790D01*
X593659Y24398D01*
G37*
%LPD*%
D10*
X519278Y33542D02*
X519278Y48782D01*
X544678Y48782D02*
X544678Y33542D01*
X570078Y33542D02*
X570078Y48782D01*
X595478Y48782D02*
X595478Y33542D01*
X236320Y515200D02*
X221080Y515200D01*
X221080Y540600D02*
X236320Y540600D01*
X236320Y566000D02*
X221080Y566000D01*
D11*
X332800Y573222D03*
X332800Y500822D03*
D12*
X68380Y324252D02*
X68380Y311552D01*
X67872Y311552D02*
X67874Y311508D01*
X67880Y311464D01*
X67889Y311421D01*
X67903Y311378D01*
X67920Y311337D01*
X67940Y311298D01*
X67964Y311261D01*
X67991Y311225D01*
X68021Y311193D01*
X68053Y311163D01*
X68089Y311136D01*
X68126Y311112D01*
X68165Y311092D01*
X68206Y311075D01*
X68249Y311061D01*
X68292Y311052D01*
X68336Y311046D01*
X68380Y311044D01*
X68424Y311046D01*
X68468Y311052D01*
X68511Y311061D01*
X68554Y311075D01*
X68595Y311092D01*
X68634Y311112D01*
X68671Y311136D01*
X68707Y311163D01*
X68739Y311193D01*
X68769Y311225D01*
X68796Y311261D01*
X68820Y311298D01*
X68840Y311337D01*
X68857Y311378D01*
X68871Y311421D01*
X68880Y311464D01*
X68886Y311508D01*
X68888Y311552D01*
X68888Y324252D02*
X68886Y324296D01*
X68880Y324340D01*
X68871Y324383D01*
X68857Y324426D01*
X68840Y324467D01*
X68820Y324506D01*
X68796Y324543D01*
X68769Y324579D01*
X68739Y324611D01*
X68707Y324641D01*
X68671Y324668D01*
X68634Y324692D01*
X68595Y324712D01*
X68554Y324729D01*
X68511Y324743D01*
X68468Y324752D01*
X68424Y324758D01*
X68380Y324760D01*
X68336Y324758D01*
X68292Y324752D01*
X68249Y324743D01*
X68206Y324729D01*
X68165Y324712D01*
X68126Y324692D01*
X68089Y324668D01*
X68053Y324641D01*
X68021Y324611D01*
X67991Y324579D01*
X67964Y324543D01*
X67940Y324506D01*
X67920Y324467D01*
X67903Y324426D01*
X67889Y324383D01*
X67880Y324340D01*
X67874Y324296D01*
X67872Y324252D01*
X396201Y338552D02*
X396171Y338554D01*
X396141Y338559D01*
X396112Y338568D01*
X396085Y338581D01*
X396059Y338596D01*
X396035Y338615D01*
X396014Y338636D01*
X395995Y338660D01*
X395980Y338686D01*
X395967Y338713D01*
X395958Y338742D01*
X395953Y338772D01*
X395951Y338802D01*
X395953Y338832D01*
X395958Y338862D01*
X395967Y338891D01*
X395980Y338918D01*
X395995Y338944D01*
X396014Y338968D01*
X396035Y338989D01*
X396059Y339008D01*
X396085Y339023D01*
X396112Y339036D01*
X396141Y339045D01*
X396171Y339050D01*
X396201Y339052D01*
X394330Y345681D02*
X394328Y345711D01*
X394323Y345741D01*
X394314Y345770D01*
X394301Y345797D01*
X394286Y345823D01*
X394267Y345847D01*
X394246Y345868D01*
X394222Y345887D01*
X394196Y345902D01*
X394169Y345915D01*
X394140Y345924D01*
X394110Y345929D01*
X394080Y345931D01*
X394050Y345929D01*
X394020Y345924D01*
X393991Y345915D01*
X393964Y345902D01*
X393938Y345887D01*
X393914Y345868D01*
X393893Y345847D01*
X393874Y345823D01*
X393859Y345797D01*
X393846Y345770D01*
X393837Y345741D01*
X393832Y345711D01*
X393830Y345681D01*
X393830Y340923D02*
X393832Y340893D01*
X393837Y340863D01*
X393846Y340834D01*
X393859Y340807D01*
X393874Y340781D01*
X393893Y340757D01*
X393914Y340736D01*
X393938Y340717D01*
X393964Y340702D01*
X393991Y340689D01*
X394020Y340680D01*
X394050Y340675D01*
X394080Y340673D01*
X394110Y340675D01*
X394140Y340680D01*
X394169Y340689D01*
X394196Y340702D01*
X394222Y340717D01*
X394246Y340736D01*
X394267Y340757D01*
X394286Y340781D01*
X394301Y340807D01*
X394314Y340834D01*
X394323Y340863D01*
X394328Y340893D01*
X394330Y340923D01*
X396201Y347552D02*
X396171Y347554D01*
X396141Y347559D01*
X396112Y347568D01*
X396085Y347581D01*
X396059Y347596D01*
X396035Y347615D01*
X396014Y347636D01*
X395995Y347660D01*
X395980Y347686D01*
X395967Y347713D01*
X395958Y347742D01*
X395953Y347772D01*
X395951Y347802D01*
X395953Y347832D01*
X395958Y347862D01*
X395967Y347891D01*
X395980Y347918D01*
X395995Y347944D01*
X396014Y347968D01*
X396035Y347989D01*
X396059Y348008D01*
X396085Y348023D01*
X396112Y348036D01*
X396141Y348045D01*
X396171Y348050D01*
X396201Y348052D01*
X396080Y344338D02*
X396080Y342266D01*
X396201Y339052D02*
X396171Y339050D01*
X396141Y339045D01*
X396112Y339036D01*
X396085Y339023D01*
X396059Y339008D01*
X396035Y338989D01*
X396014Y338968D01*
X395995Y338944D01*
X395980Y338918D01*
X395967Y338891D01*
X395958Y338862D01*
X395953Y338832D01*
X395951Y338802D01*
X395953Y338772D01*
X395958Y338742D01*
X395967Y338713D01*
X395980Y338686D01*
X395995Y338660D01*
X396014Y338636D01*
X396035Y338615D01*
X396059Y338596D01*
X396085Y338581D01*
X396112Y338568D01*
X396141Y338559D01*
X396171Y338554D01*
X396201Y338552D01*
X394080Y340923D02*
X394080Y345681D01*
X394330Y345681D02*
X394328Y345711D01*
X394323Y345741D01*
X394314Y345770D01*
X394301Y345797D01*
X394286Y345823D01*
X394267Y345847D01*
X394246Y345868D01*
X394222Y345887D01*
X394196Y345902D01*
X394169Y345915D01*
X394140Y345924D01*
X394110Y345929D01*
X394080Y345931D01*
X394050Y345929D01*
X394020Y345924D01*
X393991Y345915D01*
X393964Y345902D01*
X393938Y345887D01*
X393914Y345868D01*
X393893Y345847D01*
X393874Y345823D01*
X393859Y345797D01*
X393846Y345770D01*
X393837Y345741D01*
X393832Y345711D01*
X393830Y345681D01*
X393830Y340923D02*
X393832Y340893D01*
X393837Y340863D01*
X393846Y340834D01*
X393859Y340807D01*
X393874Y340781D01*
X393893Y340757D01*
X393914Y340736D01*
X393938Y340717D01*
X393964Y340702D01*
X393991Y340689D01*
X394020Y340680D01*
X394050Y340675D01*
X394080Y340673D01*
X394110Y340675D01*
X394140Y340680D01*
X394169Y340689D01*
X394196Y340702D01*
X394222Y340717D01*
X394246Y340736D01*
X394267Y340757D01*
X394286Y340781D01*
X394301Y340807D01*
X394314Y340834D01*
X394323Y340863D01*
X394328Y340893D01*
X394330Y340923D01*
X396201Y347552D02*
X396171Y347554D01*
X396141Y347559D01*
X396112Y347568D01*
X396085Y347581D01*
X396059Y347596D01*
X396035Y347615D01*
X396014Y347636D01*
X395995Y347660D01*
X395980Y347686D01*
X395967Y347713D01*
X395958Y347742D01*
X395953Y347772D01*
X395951Y347802D01*
X395953Y347832D01*
X395958Y347862D01*
X395967Y347891D01*
X395980Y347918D01*
X395995Y347944D01*
X396014Y347968D01*
X396035Y347989D01*
X396059Y348008D01*
X396085Y348023D01*
X396112Y348036D01*
X396141Y348045D01*
X396171Y348050D01*
X396201Y348052D01*
D13*
X335080Y317902D03*
X309680Y317902D03*
X284280Y317902D03*
X258880Y317902D03*
X233480Y317902D03*
X208080Y317902D03*
X182680Y317902D03*
X157280Y317902D03*
X131880Y317902D03*
X106480Y317902D03*
X81080Y317902D03*
D14*
X373180Y38502D03*
X42980Y38502D03*
X42980Y317902D03*
X373180Y317902D03*
D15*
X435168Y651538D03*
X409768Y651538D03*
X384368Y651538D03*
X358968Y651538D03*
X333568Y651538D03*
X308168Y651538D03*
X282768Y651538D03*
X257368Y651538D03*
X231968Y651538D03*
X206568Y651538D03*
X181168Y651538D03*
X155768Y651538D03*
X130368Y651538D03*
X104968Y651538D03*
X104968Y448338D03*
X130368Y448338D03*
X155768Y448338D03*
X181168Y448338D03*
X206568Y448338D03*
X231968Y448338D03*
X257368Y448338D03*
X282768Y448338D03*
X308168Y448338D03*
X333568Y448338D03*
X358968Y448338D03*
X384368Y448338D03*
X409768Y448338D03*
X435168Y448338D03*
D13*
X470751Y358874D03*
X470751Y333474D03*
X470751Y308074D03*
X470751Y282674D03*
X470751Y257274D03*
X470751Y231874D03*
D16*
X559651Y308074D03*
X559651Y282674D03*
D17*
X470751Y396974D03*
X470751Y193774D03*
D18*
X422000Y309106D02*
X282768Y448338D01*
X422000Y309106D02*
X422000Y120000D01*
X500838Y41162D01*
X519278Y41162D01*
X439000Y317000D02*
X354866Y401134D01*
X439000Y317000D02*
X439000Y155000D01*
X544672Y49328D01*
X354866Y401134D02*
X351034Y405472D01*
X308168Y448338D01*
X544678Y49331D02*
X544678Y41162D01*
X544672Y49328D02*
X544678Y49331D01*
X309299Y616538D02*
X140368Y616538D01*
X332800Y593222D02*
X332800Y573222D01*
X332800Y593222D02*
X309299Y616538D01*
X140368Y616538D02*
X130368Y626538D01*
X130368Y651538D01*
X248400Y540600D02*
X316000Y473000D01*
X458000Y473000D01*
X540000Y391000D01*
X540000Y88000D01*
X248400Y540600D02*
X228700Y540600D01*
X570078Y57922D02*
X570078Y41162D01*
X570078Y57922D02*
X540000Y88000D01*
M02*
