G04 EAGLE Gerber RS-274X export*
G75*
%MOMM*%
%FSLAX34Y34*%
%LPD*%
%INSoldermask Bottom*%
%IPPOS*%
%AMOC8*
5,1,8,0,0,1.08239X$1,22.5*%
G01*
G04 Define Apertures*
%ADD10C,1.727200*%
%ADD11C,1.463200*%
%ADD12C,2.133600*%
%ADD13C,3.719200*%
%ADD14C,1.711200*%
%ADD15C,2.403200*%
%ADD16C,1.561200*%
%ADD17C,3.759200*%
D10*
X519278Y33542D02*
X519278Y48782D01*
X544678Y48782D02*
X544678Y33542D01*
X570078Y33542D02*
X570078Y48782D01*
X595478Y48782D02*
X595478Y33542D01*
X236320Y515200D02*
X221080Y515200D01*
X221080Y540600D02*
X236320Y540600D01*
X236320Y566000D02*
X221080Y566000D01*
D11*
X332800Y573222D03*
X332800Y500822D03*
D12*
X335080Y317902D03*
X309680Y317902D03*
X284280Y317902D03*
X258880Y317902D03*
X233480Y317902D03*
X208080Y317902D03*
X182680Y317902D03*
X157280Y317902D03*
X131880Y317902D03*
X106480Y317902D03*
X81080Y317902D03*
D13*
X373180Y38502D03*
X42980Y38502D03*
X42980Y317902D03*
X373180Y317902D03*
D14*
X435168Y651538D03*
X409768Y651538D03*
X384368Y651538D03*
X358968Y651538D03*
X333568Y651538D03*
X308168Y651538D03*
X282768Y651538D03*
X257368Y651538D03*
X231968Y651538D03*
X206568Y651538D03*
X181168Y651538D03*
X155768Y651538D03*
X130368Y651538D03*
X104968Y651538D03*
X104968Y448338D03*
X130368Y448338D03*
X155768Y448338D03*
X181168Y448338D03*
X206568Y448338D03*
X231968Y448338D03*
X257368Y448338D03*
X282768Y448338D03*
X308168Y448338D03*
X333568Y448338D03*
X358968Y448338D03*
X384368Y448338D03*
X409768Y448338D03*
X435168Y448338D03*
D15*
X64016Y447438D03*
X64016Y652438D03*
X634016Y652438D03*
X634016Y447438D03*
D12*
X470751Y358874D03*
X470751Y333474D03*
X470751Y308074D03*
X470751Y282674D03*
X470751Y257274D03*
X470751Y231874D03*
D16*
X559651Y308074D03*
X559651Y282674D03*
D17*
X470751Y396974D03*
X470751Y193774D03*
M02*
